<?xml version="1.0" encoding="utf-8"?>
<!-- Generator: Adobe Illustrator 25.4.1, SVG Export Plug-In . SVG Version: 6.00 Build 0)  -->
<svg version="1.1"
	 id="svg8" xmlns:cc="http://creativecommons.org/ns#" xmlns:dc="http://purl.org/dc/elements/1.1/" xmlns:inkscape="http://www.inkscape.org/namespaces/inkscape" xmlns:rdf="http://www.w3.org/1999/02/22-rdf-syntax-ns#" xmlns:sodipodi="http://sodipodi.sourceforge.net/DTD/sodipodi-0.dtd" xmlns:svg="http://www.w3.org/2000/svg"
	 xmlns="http://www.w3.org/2000/svg" xmlns:xlink="http://www.w3.org/1999/xlink" x="0px" y="0px" viewBox="0 0 320 240"
	 style="enable-background:new 0 0 320 240;" xml:space="preserve">
<style type="text/css">
	.st0{fill:#FFFFFF;}
	.st1{fill:#48AEFF;}
</style>
<defs>
	
		<inkscape:path-effect  attempt_force_join="true" effect="offset" id="path-effect1694" is_visible="true" linejoin_type="miter" lpeversion="1" miter_limit="4" offset="-4" unit="px" update_on_knot_move="true">
		</inkscape:path-effect>
	
		<inkscape:path-effect  apply_no_radius="true" apply_with_radius="true" chamfer_steps="1" effect="fillet_chamfer" flexible="false" hide_knots="false" id="path-effect1692" is_visible="true" lpeversion="1" method="auto" mode="F" only_selected="false" radius="8" satellites_param="F,0,0,1,0,2.1166667,0,1 @ F,0,0,1,0,2.1166667,0,1 @ F,0,0,1,0,2.1166667,0,1" unit="px" use_knot_distance="true">
		</inkscape:path-effect>
	
		<inkscape:path-effect  attempt_force_join="true" effect="offset" id="path-effect1668" is_visible="true" linejoin_type="miter" lpeversion="1" miter_limit="4" offset="-4" unit="px" update_on_knot_move="true">
		</inkscape:path-effect>
	
		<inkscape:path-effect  apply_no_radius="true" apply_with_radius="true" chamfer_steps="1" effect="fillet_chamfer" flexible="false" hide_knots="false" id="path-effect1666" is_visible="true" lpeversion="1" method="auto" mode="F" only_selected="false" radius="8" satellites_param="F,0,0,1,0,2.1166667,0,1 @ F,0,0,1,0,2.1166667,0,1 @ F,0,0,1,0,2.1166667,0,1" unit="px" use_knot_distance="true">
		</inkscape:path-effect>
	
		<inkscape:path-effect  attempt_force_join="true" effect="offset" id="path-effect1374" is_visible="true" linejoin_type="miter" lpeversion="1" miter_limit="4" offset="-4" unit="px" update_on_knot_move="true">
		</inkscape:path-effect>
	
		<inkscape:path-effect  apply_no_radius="true" apply_with_radius="true" chamfer_steps="1" effect="fillet_chamfer" flexible="false" hide_knots="false" id="path-effect1372" is_visible="true" lpeversion="1" method="auto" mode="F" only_selected="false" radius="8" satellites_param="F,0,0,1,0,2.1166667,0,1 @ F,0,0,1,0,2.1166667,0,1 @ F,0,0,1,0,2.1166667,0,1" unit="px" use_knot_distance="true">
		</inkscape:path-effect>
	
		<inkscape:path-effect  apply_no_radius="true" apply_with_radius="true" chamfer_steps="1" effect="fillet_chamfer" flexible="false" hide_knots="false" id="path-effect1368" is_visible="true" lpeversion="1" method="auto" mode="F" only_selected="false" radius="8" satellites_param="F,0,0,1,0,2.1166667,0,1 @ F,0,0,1,0,2.1166667,0,1 @ F,0,0,1,0,2.1166667,0,1" unit="px" use_knot_distance="true">
		</inkscape:path-effect>
	
		<inkscape:path-effect  apply_no_radius="true" apply_with_radius="true" chamfer_steps="1" effect="fillet_chamfer" flexible="false" hide_knots="false" id="path-effect1357" is_visible="true" lpeversion="1" method="auto" mode="F" only_selected="false" radius="0" satellites_param="F,0,0,1,0,0,0,1 @ F,0,0,1,0,0,0,1 @ F,0,0,1,0,4.5490981,0,1 @ F,0,0,1,0,0,0,1 @ F,0,0,1,0,0,0,1 @ F,0,0,1,0,0,0,1 @ F,0,0,1,0,12.597332,0,1 @ F,0,0,1,0,0,0,1" unit="px" use_knot_distance="true">
		</inkscape:path-effect>
	
		<inkscape:path-effect  apply_no_radius="true" apply_with_radius="true" chamfer_steps="1" effect="fillet_chamfer" flexible="false" hide_knots="false" id="path-effect1355" is_visible="true" lpeversion="1" method="auto" mode="F" only_selected="false" radius="0" satellites_param="F,0,0,1,0,0,0,1 @ F,0,0,1,0,0,0,1 @ F,0,0,1,0,1.9494997,0,1 @ F,0,0,1,0,0,0,1 @ F,0,0,1,0,0,0,1 @ F,0,0,1,0,0,0,1 @ F,0,0,1,0,15.505164,0,1 @ F,0,0,1,0,0,0,1" unit="px" use_knot_distance="true">
		</inkscape:path-effect>
	
		<inkscape:path-effect  apply_no_radius="true" apply_with_radius="true" chamfer_steps="1" effect="fillet_chamfer" flexible="false" hide_knots="false" id="path-effect1345" is_visible="true" lpeversion="1" method="auto" mode="F" only_selected="false" radius="0" satellites_param="F,0,0,1,0,0,0,1 @ F,0,0,1,0,0,0,1 @ F,0,0,1,0,4.5490981,0,1 @ F,0,0,1,0,0,0,1 @ F,0,0,1,0,0,0,1 @ F,0,0,1,0,0,0,1 @ F,0,0,1,0,12.597332,0,1 @ F,0,0,1,0,0,0,1" unit="px" use_knot_distance="true">
		</inkscape:path-effect>
	
		<inkscape:path-effect  apply_no_radius="true" apply_with_radius="true" chamfer_steps="1" effect="fillet_chamfer" flexible="false" hide_knots="false" id="path-effect1343" is_visible="true" lpeversion="1" method="auto" mode="F" only_selected="false" radius="0" satellites_param="F,0,0,1,0,0,0,1 @ F,0,0,1,0,0,0,1 @ F,0,0,1,0,1.9494997,0,1 @ F,0,0,1,0,0,0,1 @ F,0,0,1,0,0,0,1 @ F,0,0,1,0,0,0,1 @ F,0,0,1,0,15.505164,0,1 @ F,0,0,1,0,0,0,1" unit="px" use_knot_distance="true">
		</inkscape:path-effect>
	
		<inkscape:path-effect  apply_no_radius="true" apply_with_radius="true" chamfer_steps="1" effect="fillet_chamfer" flexible="false" hide_knots="false" id="path-effect1333" is_visible="true" lpeversion="1" method="auto" mode="F" only_selected="false" radius="0" satellites_param="F,0,0,1,0,0,0,1 @ F,0,0,1,0,0,0,1 @ F,0,0,1,0,4.5490981,0,1 @ F,0,0,1,0,0,0,1 @ F,0,0,1,0,0,0,1 @ F,0,0,1,0,0,0,1 @ F,0,0,1,0,12.597332,0,1 @ F,0,0,1,0,0,0,1" unit="px" use_knot_distance="true">
		</inkscape:path-effect>
	
		<inkscape:path-effect  apply_no_radius="true" apply_with_radius="true" chamfer_steps="1" effect="fillet_chamfer" flexible="false" hide_knots="false" id="path-effect1331" is_visible="true" lpeversion="1" method="auto" mode="F" only_selected="false" radius="0" satellites_param="F,0,0,1,0,0,0,1 @ F,0,0,1,0,0,0,1 @ F,0,0,1,0,1.9494997,0,1 @ F,0,0,1,0,0,0,1 @ F,0,0,1,0,0,0,1 @ F,0,0,1,0,0,0,1 @ F,0,0,1,0,15.505164,0,1 @ F,0,0,1,0,0,0,1" unit="px" use_knot_distance="true">
		</inkscape:path-effect>
	
		<inkscape:path-effect  apply_no_radius="true" apply_with_radius="true" chamfer_steps="1" effect="fillet_chamfer" flexible="false" hide_knots="false" id="path-effect1316" is_visible="true" lpeversion="1" method="auto" mode="F" only_selected="false" radius="0" satellites_param="F,0,0,1,0,0,0,1 @ F,0,0,1,0,0,0,1 @ F,0,0,1,0,1.9494997,0,1 @ F,0,0,1,0,0,0,1 @ F,0,0,1,0,0,0,1 @ F,0,0,1,0,0,0,1 @ F,0,0,1,0,15.505164,0,1 @ F,0,0,1,0,0,0,1" unit="px" use_knot_distance="true">
		</inkscape:path-effect>
	
		<inkscape:path-effect  apply_no_radius="true" apply_with_radius="true" chamfer_steps="1" effect="fillet_chamfer" flexible="false" hide_knots="false" id="path-effect1314" is_visible="true" lpeversion="1" method="auto" mode="F" only_selected="false" radius="0" satellites_param="F,0,0,1,0,0,0,1 @ F,0,0,1,0,0,0,1 @ F,0,0,1,0,4.5490981,0,1 @ F,0,0,1,0,0,0,1 @ F,0,0,1,0,0,0,1 @ F,0,0,1,0,0,0,1 @ F,0,0,1,0,12.597332,0,1 @ F,0,0,1,0,0,0,1" unit="px" use_knot_distance="true">
		</inkscape:path-effect>
	
		<inkscape:path-effect  apply_no_radius="true" apply_with_radius="true" chamfer_steps="1" effect="fillet_chamfer" flexible="false" hide_knots="false" id="path-effect1220" is_visible="true" lpeversion="1" method="auto" mode="F" only_selected="false" radius="0" satellites_param="F,0,0,1,0,0,0,1 @ F,0,0,1,0,0,0,1 @ F,0,0,1,0,0,0,1 @ F,0,0,1,0,0,0,1 @ F,0,0,1,0,0,0,1 @ F,0,0,1,0,0,0,1 @ F,0,0,1,0,5.2711439,0,1 @ F,0,0,1,0,0,0,1 @ F,0,0,1,0,0,0,1 @ F,0,0,1,0,0,0,1 @ F,0,0,1,0,0,0,1" unit="px" use_knot_distance="true">
		</inkscape:path-effect>
	
		<inkscape:path-effect  apply_no_radius="true" apply_with_radius="true" chamfer_steps="1" effect="fillet_chamfer" flexible="false" hide_knots="false" id="path-effect1218" is_visible="true" lpeversion="1" method="auto" mode="F" only_selected="false" radius="16" satellites_param="F,0,0,1,0,0,0,1 @ F,0,0,1,0,0,0,1 @ F,0,0,1,0,0,0,1 @ F,0,0,1,0,0,0,1 @ F,0,0,1,0,0,0,1 @ F,0,0,1,0,3.0844653,0,1 @ F,0,0,1,0,0,0,1 @ F,0,0,1,0,0,0,1 @ F,0,0,1,0,0,0,1" unit="px" use_knot_distance="true">
		</inkscape:path-effect>
	
		<inkscape:path-effect  apply_no_radius="true" apply_with_radius="true" chamfer_steps="1" effect="fillet_chamfer" flexible="false" hide_knots="false" id="path-effect1210" is_visible="true" lpeversion="1" method="auto" mode="F" only_selected="false" radius="0" satellites_param="F,0,0,1,0,0,0,1 @ F,0,0,1,0,0,0,1 @ F,0,0,1,0,0,0,1 @ F,0,0,1,0,0,0,1 @ F,0,0,1,0,0,0,1 @ F,0,0,1,0,0,0,1 @ F,0,0,1,0,5.2711439,0,1 @ F,0,0,1,0,0,0,1 @ F,0,0,1,0,0,0,1 @ F,0,0,1,0,0,0,1 @ F,0,0,1,0,0,0,1" unit="px" use_knot_distance="true">
		</inkscape:path-effect>
	
		<inkscape:path-effect  apply_no_radius="true" apply_with_radius="true" chamfer_steps="1" effect="fillet_chamfer" flexible="false" hide_knots="false" id="path-effect1208" is_visible="true" lpeversion="1" method="auto" mode="F" only_selected="false" radius="16" satellites_param="F,0,0,1,0,0,0,1 @ F,0,0,1,0,0,0,1 @ F,0,0,1,0,0,0,1 @ F,0,0,1,0,0,0,1 @ F,0,0,1,0,0,0,1 @ F,0,0,1,0,3.0844653,0,1 @ F,0,0,1,0,0,0,1 @ F,0,0,1,0,0,0,1 @ F,0,0,1,0,0,0,1" unit="px" use_knot_distance="true">
		</inkscape:path-effect>
	
		<inkscape:path-effect  apply_no_radius="true" apply_with_radius="true" chamfer_steps="1" effect="fillet_chamfer" flexible="false" hide_knots="false" id="path-effect1200" is_visible="true" lpeversion="1" method="auto" mode="F" only_selected="false" radius="0" satellites_param="F,0,0,1,0,0,0,1 @ F,0,0,1,0,0,0,1 @ F,0,0,1,0,0,0,1 @ F,0,0,1,0,0,0,1 @ F,0,0,1,0,0,0,1 @ F,0,0,1,0,0,0,1 @ F,0,0,1,0,5.2711439,0,1 @ F,0,0,1,0,0,0,1 @ F,0,0,1,0,0,0,1 @ F,0,0,1,0,0,0,1 @ F,0,0,1,0,0,0,1" unit="px" use_knot_distance="true">
		</inkscape:path-effect>
	
		<inkscape:path-effect  apply_no_radius="true" apply_with_radius="true" chamfer_steps="1" effect="fillet_chamfer" flexible="false" hide_knots="false" id="path-effect1198" is_visible="true" lpeversion="1" method="auto" mode="F" only_selected="false" radius="16" satellites_param="F,0,0,1,0,0,0,1 @ F,0,0,1,0,0,0,1 @ F,0,0,1,0,0,0,1 @ F,0,0,1,0,0,0,1 @ F,0,0,1,0,0,0,1 @ F,0,0,1,0,3.0844653,0,1 @ F,0,0,1,0,0,0,1 @ F,0,0,1,0,0,0,1 @ F,0,0,1,0,0,0,1" unit="px" use_knot_distance="true">
		</inkscape:path-effect>
	
		<inkscape:path-effect  apply_no_radius="true" apply_with_radius="true" chamfer_steps="1" effect="fillet_chamfer" flexible="false" hide_knots="false" id="path-effect1186" is_visible="true" lpeversion="1" method="auto" mode="F" only_selected="false" radius="0" satellites_param="F,0,0,1,0,0,0,1 @ F,0,0,1,0,0,0,1 @ F,0,0,1,0,0,0,1 @ F,0,0,1,0,0,0,1 @ F,0,0,1,0,0,0,1 @ F,0,0,1,0,0,0,1 @ F,0,0,1,0,5.2711439,0,1 @ F,0,0,1,0,0,0,1 @ F,0,0,1,0,0,0,1 @ F,0,0,1,0,0,0,1 @ F,0,0,1,0,0,0,1" unit="px" use_knot_distance="true">
		</inkscape:path-effect>
	
		<inkscape:path-effect  apply_no_radius="true" apply_with_radius="true" chamfer_steps="1" effect="fillet_chamfer" flexible="false" hide_knots="false" id="path-effect1184" is_visible="true" lpeversion="1" method="auto" mode="F" only_selected="false" radius="16" satellites_param="F,0,0,1,0,0,0,1 @ F,0,0,1,0,0,0,1 @ F,0,0,1,0,0,0,1 @ F,0,0,1,0,0,0,1 @ F,0,0,1,0,0,0,1 @ F,0,0,1,0,3.0844653,0,1 @ F,0,0,1,0,0,0,1 @ F,0,0,1,0,0,0,1 @ F,0,0,1,0,0,0,1" unit="px" use_knot_distance="true">
		</inkscape:path-effect>
</defs>
<sodipodi:namedview  bordercolor="#666666" borderopacity="1.0" id="base" inkscape:current-layer="layer1" inkscape:cx="191.1817" inkscape:cy="120.77671" inkscape:document-rotation="0" inkscape:document-units="mm" inkscape:pagecheckerboard="false" inkscape:pageopacity="0" inkscape:pageshadow="2" inkscape:snap-global="true" inkscape:window-height="1080" inkscape:window-maximized="1" inkscape:window-width="1920" inkscape:window-x="0" inkscape:window-y="0" inkscape:zoom="3.7288835" pagecolor="#858585" showgrid="true" units="px">
	<inkscape:grid  empspacing="4" id="grid27" originy="0" spacingx="5.2916667" spacingy="5.2916667" type="xygrid"></inkscape:grid>
</sodipodi:namedview>
<g id="layer1" transform="translate(0,-11.249975)" inkscape:groupmode="layer" inkscape:label="Layer 1">
	<g id="g891" transform="matrix(0,1.25,-1.2500001,0,77.562478,11.249976)">
		<path id="rect887" sodipodi:nodetypes="ccccc" class="st0" d="M0-110h64v24H0V-110z"/>
		<path id="rect889" sodipodi:nodetypes="ccccc" class="st1" d="M0-106h64v16H0V-106z"/>
	</g>
	<path id="rect897" sodipodi:nodetypes="sssssssss" class="st0" d="M22.5,23.7h35c5.5,0,10,4.5,10,10v35c0,5.5-4.5,10-10,10h-35
		c-5.5,0-10-4.5-10-10v-35C12.5,28.2,17,23.7,22.5,23.7z"/>
	<path id="rect899" sodipodi:nodetypes="sssssssss" class="st1" d="M23.8,28.7h32.5c3.5,0,6.3,2.8,6.3,6.2v32.5
		c0,3.5-2.8,6.2-6.3,6.2H23.8c-3.5,0-6.2-2.8-6.2-6.2V35C17.5,31.5,20.3,28.7,23.8,28.7z"/>
	<g id="g1279" transform="matrix(-1.2500001,0,0,-1.25,42.333338,46.479113)">
		<path id="path1275" sodipodi:nodetypes="ccccc" class="st0" d="M-94.1-15.8h64v24h-64V-15.8z"/>
		<path id="path1277" sodipodi:nodetypes="ccccc" class="st1" d="M-94.1-11.8h64v16h-64V-11.8z"/>
	</g>
	<g id="g1321" transform="matrix(1.2500001,0,0,1.25,21.166669,-2.8124943)">
		<g id="g1297" transform="rotate(180,8.466667,28.183308)">
			
				<path id="path1293" inkscape:original-d="m 0,84 v 24 h 20 v 20 H 44 V 108 84 H 20 Z" inkscape:path-effect="#path-effect1316" class="st0" d="
				M-30.1-38.9v-24h-18.1c-1.1,0-1.9-0.9-1.9-1.9c0,0,0,0,0,0v-18.1h-24v20v8.5c0,8.6,6.9,15.5,15.5,15.5c0,0,0,0,0,0h8.5H-30.1z"/>
			
				<path id="path1295" inkscape:original-d="m 0,88 v 16 h 24 v 24 H 40 V 104 88 H 24 Z" inkscape:path-effect="#path-effect1314" class="st1" d="
				M-30.1-42.9v-16h-19.5c-2.5,0-4.5-2-4.5-4.5c0,0,0,0,0,0v-19.5h-16v24v3.4c0,7,5.6,12.6,12.6,12.6h3.4H-30.1z"/>
		</g>
	</g>
	<g id="g1329" transform="matrix(0,1.25,-1.2500001,0,77.562475,53.583311)">
		<g id="g1327" transform="rotate(180,8.466667,28.183308)">
			
				<path id="path1323" inkscape:original-d="m 0,84 v 24 h 20 v 20 H 44 V 108 84 H 20 Z" inkscape:path-effect="#path-effect1331" class="st0" d="
				M-77.2,102.3v-24h-18.1c-1.1,0-1.9-0.9-1.9-1.9c0,0,0,0,0,0V58.3h-24v20v8.5c0,8.6,6.9,15.5,15.5,15.5c0,0,0,0,0,0h8.5H-77.2z"/>
			
				<path id="path1325" inkscape:original-d="m 0,88 v 16 h 24 v 24 H 40 V 104 88 H 24 Z" inkscape:path-effect="#path-effect1333" class="st1" d="
				M-77.2,98.3v-16h-19.5c-2.5,0-4.5-2-4.5-4.5c0,0,0,0,0,0V58.3h-16v24v3.4c0,7,5.6,12.6,12.6,12.6h3.4H-77.2z"/>
		</g>
	</g>
	<g id="g1341" transform="matrix(-1.2500001,0,0,-1.25,21.166668,109.97911)">
		<g id="g1339" transform="rotate(180,8.466667,28.183308)">
			
				<path id="path1335" inkscape:original-d="m 0,84 v 24 h 20 v 20 H 44 V 108 84 H 20 Z" inkscape:path-effect="#path-effect1343" class="st0" d="
				M64,149.4v-24H45.9c-1.1,0-1.9-0.9-1.9-1.9c0,0,0,0,0,0v-18.1H20v20v8.5c0,8.6,6.9,15.5,15.5,15.5c0,0,0,0,0,0H44H64z"/>
			
				<path id="path1337" inkscape:original-d="m 0,88 v 16 h 24 v 24 H 40 V 104 88 H 24 Z" inkscape:path-effect="#path-effect1345" class="st1" d="
				M64,145.4v-16H44.5c-2.5,0-4.5-2-4.5-4.5c0,0,0,0,0,0v-19.5H24v24v3.4c0,7,5.6,12.6,12.6,12.6H40H64z"/>
		</g>
	</g>
	<g id="g1353" transform="matrix(0,-1.25,1.2500001,0,-35.229137,53.583309)">
		<g id="g1351" transform="rotate(180,8.466667,28.183308)">
			
				<path id="path1347" inkscape:original-d="m 0,84 v 24 h 20 v 20 H 44 V 108 84 H 20 Z" inkscape:path-effect="#path-effect1355" class="st0" d="
				M111.1,8.2v-24H93c-1.1,0-1.9-0.9-1.9-1.9c0,0,0,0,0,0v-18.1h-24v20v8.5c0,8.6,6.9,15.5,15.5,15.5c0,0,0,0,0,0h8.5H111.1z"/>
			
				<path id="path1349" inkscape:original-d="m 0,88 v 16 h 24 v 24 H 40 V 104 88 H 24 Z" inkscape:path-effect="#path-effect1357" class="st1" d="
				M111.1,4.2v-16H91.6c-2.5,0-4.5-2-4.5-4.5c0,0,0,0,0,0v-19.5h-16v24v3.4c0,7,5.6,12.6,12.6,12.6h3.4H111.1z"/>
		</g>
	</g>
	<path class="st1" d="M210,137.2l-8.8-13.6c-0.3-0.5-0.8-0.7-1.2-0.7c-0.4,0-0.9,0.2-1.2,0.7l-8.8,13.6v24h0v10h20v-10V137.2z"/>
</g>
<path class="st0" d="M207.6,106.7H193c-4.4,0-8,3.6-8,8v90.6c0,4.4,3.6,8,8,8h14.6c4.4,0,8-3.6,8-8v-90.6
	C215.6,110.3,212,106.7,207.6,106.7z"/>
<path class="st1" d="M206,208.8h-12c-2.2,0-4-1.8-4-4v-89c0-2.2,1.8-4,4-4h12c2.2,0,4,1.8,4,4v89C210,207,208.2,208.8,206,208.8z"/>
<path class="st0" d="M285.3,104.7H240v30.6h45.3c4.4,0,8-3.6,8-8v-14.6C293.3,108.3,289.7,104.7,285.3,104.7z"/>
<path class="st1" d="M284.3,109.7H240v20h44.3c2.2,0,4-1.8,4-4v-12C288.3,111.5,286.5,109.7,284.3,109.7z"/>
<path class="st0" d="M274.7,215H320v-30.6h-45.3c-4.4,0-8,3.6-8,8V207C266.7,211.4,270.3,215,274.7,215z"/>
<path class="st1" d="M275.7,210H320v-20h-44.3c-2.2,0-4,1.8-4,4v12C271.7,208.2,273.5,210,275.7,210z"/>
</svg>
